<?xml version="1.0" encoding="utf-8"?>
<!-- Generator: Adobe Illustrator 25.2.3, SVG Export Plug-In . SVG Version: 6.00 Build 0)  -->
<svg version="1.1" id="Layer_1" xmlns="http://www.w3.org/2000/svg" xmlns:xlink="http://www.w3.org/1999/xlink" x="0px" y="0px"
	 viewBox="0 0 351.2 186.1" style="enable-background:new 0 0 351.2 186.1;" xml:space="preserve">
<style type="text/css">
	.st0{fill:#0598C4;}
	.st1{fill:#FFFFFF;}
</style>
<g>
	<path class="st1" d="M332.2,138h-0.3c-1.7,5-3.9,7.4-6.7,7.4h-27.4V90.4h18.5l1,0.3c2.1,1.4,3.6,3.7,4.6,7h0.3V75.2H322
		c-1.7,4.9-3.8,7.3-6.4,7.3h-17.8V7.7h28c2.3,0,4.3,2.5,6.1,7.4h0.3V0.3c0-0.2-0.1-0.3-0.3-0.3h-54.8v0.3c4.9,1.8,7.3,3.8,7.3,6
		v140.6c0,2.2-2.5,4.2-7.4,6v0.3h55.2V138z"/>
	<path class="st1" d="M126.4,134.1h-15.7v0.3c1,0,1.8,0.9,2.2,2.6c0,0.4,0,0.5-0.1,0.9c-1.8,4.9-4.8,7.4-8.9,7.4H88.6
		c-0.7,0-1.5-0.2-2.6-0.5c-4.4-2-6.6-5.4-6.6-10V18.3c0-0.9,0.1-2,0.4-3.2c1.9-4.8,4.8-7.2,8.5-7.2h15.9c1.2,0,2.7,0.4,4.3,1.3
		c2.9,2.6,4.4,4.4,4.4,6.4c-0.3,2-1.1,3-2.2,3v0.3h15.7c0.2,0,0.3-0.1,0.3-0.3v-1.7c0-2.4-0.8-4.8-2.3-7.8c-3.9-6-8.5-9-13.9-9H82.1
		c-2.8,0-5.6,1-8.4,2.9c-5.2,4.1-7.8,9-7.8,14.8v117.8c0,2.8,0.8,5.8,2.5,8.8c3.8,5.9,8.5,8.8,14.4,8.8h27.1c3.1,0,6.1-1,9-2.9
		c5.2-4.2,7.8-8.8,7.8-14.4v-1.4C126.6,134.2,126.5,134.1,126.4,134.1z"/>
	<path class="st1" d="M147.4,42.2c0-2.4-0.8-5.1-2.3-8.1c-3.8-5.9-8.4-8.8-13.7-8.8h-22.5c-2.7,0-5.5,0.9-8.3,2.8
		c-5.1,4-7.7,8.9-7.7,14.5v67.8c0,2.8,0.8,5.7,2.4,8.7c3.7,5.8,8.4,8.7,14.1,8.7h21.3c3,0,6-0.9,8.9-2.8c5.1-4.1,7.7-8.9,7.7-14.4
		V42.2z M134.1,111c-1.4,6-4.5,9-9.4,9h-9.4c-0.5,0-1.2-0.1-2.1-0.3c-4.7-1.9-7-5.2-7-9.9V43.2c0-0.9,0.1-2,0.4-3.1
		c1.9-4.8,4.7-7.1,8.4-7.1h10.3c0.7,0,1.5,0.1,2.4,0.5c4.3,2,6.4,5.3,6.4,9.7V111z"/>
	<path class="st1" d="M221.8,152.9v-14.7h-0.3c-1.8,4.9-3.8,7.4-6.2,7.4h-42.2V6.9c0-2.8,2.5-5,7.4-6.7V0h-27.8v0.3
		c4.9,1.5,7.4,3.9,7.4,7.1v138.5c0,3.1-2.5,5.5-7.5,7.1v0.3h69C221.7,153.2,221.8,153.1,221.8,152.9z"/>
	<path class="st1" d="M213.3,132.1c-0.2,0-1-0.3-2.6-1c-3.1-1.8-4.6-3.3-4.6-4.6V6.2c0-2.2,2.4-4.2,7.2-5.9V0h-27.8v0.3
		c4.8,1.8,7.2,3.7,7.2,5.9v120c0,2.2-2.5,4.2-7.4,5.9v0.3h28V132.1z"/>
	<path class="st1" d="M274.6,0h-55.1c-0.2,0-0.3,0.1-0.3,0.3v14.8h0.3c1.8-4.9,3.9-7.3,6.1-7.3h14.6V147c-0.2,0.7-0.3,1.1-0.3,1.2
		c-1.3,2-3.7,3.6-7.2,4.7v0.3h28.4v-0.3c-5-1.7-7.5-4-7.5-7V7.7h14.8c2.3,0,4.3,2.5,6.1,7.5h0.3V0.3C274.9,0.1,274.8,0,274.6,0z"/>
	<path class="st1" d="M56.6,147.3L40.1,4.4c0-2,1.6-3.4,4.7-4.2V0H19.2v0.3c3.1,0.8,4.7,2.2,4.7,4.1L6.1,149.2
		c-2.2,2-4.2,3.2-6.1,3.7v0.3h24.3v-0.3h-0.1c-3.5-0.8-5.3-2.1-5.3-4.1v-0.4l4-42.8h17.8l4.1,44.1c0,1.4-1.7,2.5-5.1,3.2v0.3h24.3
		v-0.3h-0.3C59.4,150.9,57,149,56.6,147.3z M23.7,96.8l8.1-86.7l8.1,86.7H23.7z"/>
	<path class="st1" d="M345,0.4c-3.5,0-6.2,2.8-6.2,6.2c0,3.4,2.7,6.2,6.2,6.2c3.4,0,6.2-2.8,6.2-6.2C351.2,3.1,348.4,0.4,345,0.4z
		 M345,11.1c-2.7,0-4.6-1.8-4.6-4.6c0-2.8,1.9-4.6,4.6-4.6c2.7,0,4.6,1.8,4.6,4.6C349.5,9.3,347.6,11.1,345,11.1z"/>
	<path class="st1" d="M347.7,5.3c0-1.5-0.8-2-2.2-2h-3.1v6.5h1.4V7h1l1.4,2.7h1.6L346.3,7C347.1,6.9,347.7,6.4,347.7,5.3z
		 M345.2,5.8h-1.5V4.5h1.5c0.7,0,1.3,0,1.3,0.6C346.5,5.8,345.9,5.8,345.2,5.8z"/>
	<polygon class="st1" points="3.1,184.9 6.1,184.9 6.1,177.1 9.9,177.1 9.9,174.5 6.1,174.5 6.1,168.8 11,168.8 11,166.1 3.1,166.1 
			"/>
	<rect x="19.4" y="166.1" class="st1" width="3" height="18.8"/>
	<polygon class="st1" points="33.9,166.1 30.9,166.1 30.9,184.9 38.7,184.9 38.7,182.2 33.9,182.2 	"/>
	<polygon class="st1" points="52.7,179.4 50.5,166.1 46.4,166.1 46.4,184.9 49,184.9 49,171.6 51.2,184.9 54,184.9 56,171.4 
		56,184.9 58.8,184.9 58.8,166.1 54.7,166.1 	"/>
	<polygon class="st1" points="79.1,184.9 87.1,184.9 87.1,182.2 82,182.2 82,176.7 86.1,176.7 86.1,174 82,174 82,168.8 87.1,168.8 
		87.1,166.1 79.1,166.1 	"/>
	<path class="st1" d="M104.1,183c0.4-0.7,0.6-1.6,0.6-2.6v-9.8c0-3-1.6-4.7-4.5-4.7c-2.9,0-4.5,1.7-4.5,4.7v9.8c0,3,1.6,4.7,4.5,4.7
		c0.8,0,1.5-0.1,2.1-0.3c0.4,0.8,1.2,1.3,2.6,1.3h0.4v-2.6h-0.3C104.5,183.4,104.2,183.4,104.1,183z M101.7,180.6
		c0,1.3-0.6,1.9-1.5,1.9s-1.5-0.5-1.5-1.9v-10.1c0-1.3,0.6-1.9,1.5-1.9s1.5,0.5,1.5,1.9V180.6z"/>
	<path class="st1" d="M118.9,180.6c0,1.3-0.6,1.8-1.5,1.8c-0.9,0-1.5-0.5-1.5-1.8v-14.5h-3v14.3c0,3,1.5,4.7,4.4,4.7
		c2.9,0,4.4-1.7,4.4-4.7v-14.3h-2.8V180.6z"/>
	<rect x="130.7" y="166.1" class="st1" width="3" height="18.8"/>
	<path class="st1" d="M146.6,166.1h-4.4v18.8h3v-7.1h1.4c3,0,4.4-1.6,4.4-4.6v-2.4C151,167.7,149.5,166.1,146.6,166.1z M148,173.4
		c0,1.3-0.5,1.8-1.4,1.8h-1.4v-6.4h1.4c0.9,0,1.4,0.4,1.4,1.8V173.4z"/>
	<polygon class="st1" points="165,179.4 162.9,166.1 158.8,166.1 158.8,184.9 161.3,184.9 161.3,171.6 163.5,184.9 166.3,184.9 
		168.4,171.4 168.4,184.9 171.2,184.9 171.2,166.1 167,166.1 	"/>
	<polygon class="st1" points="179.7,184.9 187.8,184.9 187.8,182.2 182.7,182.2 182.7,176.7 186.7,176.7 186.7,174 182.7,174 
		182.7,168.8 187.8,168.8 187.8,166.1 179.7,166.1 	"/>
	<polygon class="st1" points="202.8,177.4 199.7,166.1 196,166.1 196,184.9 198.7,184.9 198.7,171.3 202.4,184.9 205.4,184.9 
		205.4,166.1 202.8,166.1 	"/>
	<polygon class="st1" points="213.1,168.8 216.2,168.8 216.2,184.9 219.2,184.9 219.2,168.8 222.2,168.8 222.2,166.1 213.1,166.1 	
		"/>
	<path class="st1" d="M250.5,179.7c0-2-0.5-3.4-2-4c1.3-0.6,1.9-1.9,1.9-3.8v-1.5c0-2.9-1.3-4.3-4.4-4.3h-4.5v18.8h3v-7.6h1
		c1.3,0,1.9,0.6,1.9,2.4v3c0,1.5,0.1,1.8,0.3,2.3h3c-0.3-0.7-0.3-1.4-0.3-2.3V179.7z M247.5,172.6c0,1.5-0.7,2-1.8,2h-1.2v-5.8h1.4
		c1,0,1.5,0.6,1.5,1.9V172.6z"/>
	<polygon class="st1" points="258.9,184.9 267,184.9 267,182.2 261.9,182.2 261.9,176.7 265.9,176.7 265.9,174 261.9,174 
		261.9,168.8 267,168.8 267,166.1 258.9,166.1 	"/>
	<polygon class="st1" points="282,177.4 278.9,166.1 275.2,166.1 275.2,184.9 277.9,184.9 277.9,171.3 281.6,184.9 284.6,184.9 
		284.6,166.1 282,166.1 	"/>
	<polygon class="st1" points="292.3,168.8 295.4,168.8 295.4,184.9 298.3,184.9 298.3,168.8 301.4,168.8 301.4,166.1 292.3,166.1 	
		"/>
	<path class="st1" d="M310.9,166.1l-3,18.8h2.7l0.5-3.4h3.6l0.5,3.4h3l-3-18.8H310.9z M311.5,178.9l1.4-9.5l1.4,9.5H311.5z"/>
	<polygon class="st1" points="329,166.1 326,166.1 326,184.9 333.8,184.9 333.8,182.2 329,182.2 	"/>
</g>
</svg>
