<?xml version="1.0" encoding="utf-8"?>
<!-- Generator: Adobe Illustrator 24.0.0, SVG Export Plug-In . SVG Version: 6.00 Build 0)  -->
<svg version="1.1" id="Layer_1" xmlns="http://www.w3.org/2000/svg" xmlns:xlink="http://www.w3.org/1999/xlink" x="0px" y="0px"
	 viewBox="0 0 148.4 12.1" style="enable-background:new 0 0 148.4 12.1;" xml:space="preserve">
<style type="text/css">
	.st0{fill:url(#SVGID_1_);}
	.st1{fill:url(#SVGID_2_);}
	.st2{fill:url(#SVGID_3_);}
	.st3{fill:url(#SVGID_4_);}
	.st4{fill:url(#SVGID_5_);}
	.st5{fill:url(#SVGID_6_);}
	.st6{fill:url(#SVGID_7_);}
	.st7{fill:url(#SVGID_8_);}
	.st8{fill:url(#SVGID_9_);}
	.st9{fill:url(#SVGID_10_);}
	.st10{fill:url(#SVGID_11_);}
	.st11{fill:url(#SVGID_12_);}
	.st12{fill:url(#SVGID_13_);}
	.st13{fill:url(#SVGID_14_);}
	.st14{fill:url(#SVGID_15_);}
	.st15{fill:url(#SVGID_16_);}
	.st16{fill:#F6F5F7;}
</style>
<g>
	<g>
		<g>
			
				<linearGradient id="SVGID_1_" gradientUnits="userSpaceOnUse" x1="98.3" y1="14" x2="98.3" y2="1.8771" gradientTransform="matrix(1 0 0 -1 0 14)">
				<stop  offset="1.497109e-06" style="stop-color:#00C5FF"/>
				<stop  offset="1" style="stop-color:#1B75BC"/>
			</linearGradient>
			<path class="st0" d="M103.4,3l-5.1-3l-5.2,3.1V9l5.2,3.1l5.2-3L103.4,3z M98.4,11.6l-4.8-2.9V3.3l4.8-2.8l4.7,2.7l0.1,5.6
				L98.4,11.6z"/>
			
				<linearGradient id="SVGID_2_" gradientUnits="userSpaceOnUse" x1="98.5028" y1="6.6853" x2="98.1969" y2="7.2153" gradientTransform="matrix(1 0 0 -1 0 14)">
				<stop  offset="1.358586e-06" style="stop-color:#FF61BE"/>
				<stop  offset="1" style="stop-color:#FF2079"/>
			</linearGradient>
			<polygon class="st1" points="98.3,7.3 98.1,7.3 98.1,6.8 98.3,6.8 98.3,6.8 98.6,6.8 98.6,7.3 			"/>
			<g>
				
					<linearGradient id="SVGID_3_" gradientUnits="userSpaceOnUse" x1="96.859" y1="4.8783" x2="96.1855" y2="6.0447" gradientTransform="matrix(1 0 0 -1 0 14)">
					<stop  offset="1.358586e-06" style="stop-color:#FF61BE"/>
					<stop  offset="1" style="stop-color:#FF2079"/>
				</linearGradient>
				<polygon class="st2" points="95.7,9.5 95.6,9.7 95.9,9.7 95.9,9.7 97.5,7.5 97.4,7.3 				"/>
				
					<linearGradient id="SVGID_4_" gradientUnits="userSpaceOnUse" x1="100.7933" y1="4.1992" x2="99.4156" y2="6.5853" gradientTransform="matrix(1 0 0 -1 0 14)">
					<stop  offset="1.358586e-06" style="stop-color:#FF61BE"/>
					<stop  offset="1" style="stop-color:#FF2079"/>
				</linearGradient>
				<polygon class="st3" points="100.7,9.7 100.7,9.7 101,9.7 100.9,9.5 99.3,7.5 99.3,7.7 				"/>
				
					<linearGradient id="SVGID_5_" gradientUnits="userSpaceOnUse" x1="97.4917" y1="6.8225" x2="95.1062" y2="10.9543" gradientTransform="matrix(1 0 0 -1 0 14)">
					<stop  offset="1.358586e-06" style="stop-color:#FF61BE"/>
					<stop  offset="1" style="stop-color:#FF2079"/>
				</linearGradient>
				<polygon class="st4" points="95.5,3 95.5,3 95.3,3 95.3,3.1 97.2,7.4 97.3,7.2 				"/>
				
					<linearGradient id="SVGID_6_" gradientUnits="userSpaceOnUse" x1="101.0601" y1="7.5702" x2="99.565" y2="10.1597" gradientTransform="matrix(1 0 0 -1 0 14)">
					<stop  offset="1.358586e-06" style="stop-color:#FF61BE"/>
					<stop  offset="1" style="stop-color:#FF2079"/>
				</linearGradient>
				<polygon class="st5" points="101.3,3 101.1,3 101.1,3 99.3,7.2 99.4,7.4 101.3,3.1 				"/>
				
					<linearGradient id="SVGID_7_" gradientUnits="userSpaceOnUse" x1="99.0834" y1="4.7449" x2="97.9744" y2="6.6656" gradientTransform="matrix(1 0 0 -1 0 14)">
					<stop  offset="1.358586e-06" style="stop-color:#FF61BE"/>
					<stop  offset="1" style="stop-color:#FF2079"/>
				</linearGradient>
				<path class="st6" d="M98.3,9.4l-0.7-1.8l-0.1,0.2l0.8,1.9c0,0.1,0.1,0.1,0.2,0l0.8-1.9L99,7.6L98.3,9.4z"/>
			</g>
			
				<linearGradient id="SVGID_8_" gradientUnits="userSpaceOnUse" x1="100.0852" y1="8.5043" x2="97.7582" y2="12.5348" gradientTransform="matrix(1 0 0 -1 0 14)">
				<stop  offset="1.358586e-06" style="stop-color:#FF61BE"/>
				<stop  offset="1" style="stop-color:#FF2079"/>
			</linearGradient>
			<path class="st7" d="M96.7,2.3l1.7,3.8l1.7-3.8l0.3-0.1l-1.8,4.2c0,0.1-0.2,0.1-0.2,0l-1.8-4.2L96.7,2.3z"/>
		</g>
		<g>
			
				<linearGradient id="SVGID_9_" gradientUnits="userSpaceOnUse" x1="108.25" y1="3.7" x2="108.25" y2="12.2" gradientTransform="matrix(1 0 0 -1 0 14)">
				<stop  offset="0" style="stop-color:#00C5FF"/>
				<stop  offset="1" style="stop-color:#1B75BC"/>
			</linearGradient>
			<path class="st8" d="M111.1,4.4c0,1.5-1,2.6-2.8,2.6H106v3.3h-0.6V6.4h3.1c1.3,0,2.1-0.8,2.1-2s-0.9-2-2.1-2h-3.1V1.8h3
				C110,1.8,111.1,2.9,111.1,4.4z"/>
			
				<linearGradient id="SVGID_10_" gradientUnits="userSpaceOnUse" x1="113.6" y1="3.7" x2="113.6" y2="12.2" gradientTransform="matrix(1 0 0 -1 0 14)">
				<stop  offset="0" style="stop-color:#00C5FF"/>
				<stop  offset="1" style="stop-color:#1B75BC"/>
			</linearGradient>
			<path class="st9" d="M113.3,1.8h0.6v8.5h-0.6V1.8z"/>
			
				<linearGradient id="SVGID_11_" gradientUnits="userSpaceOnUse" x1="119.65" y1="3.7" x2="119.65" y2="12.2" gradientTransform="matrix(1 0 0 -1 0 14)">
				<stop  offset="0" style="stop-color:#00C5FF"/>
				<stop  offset="1" style="stop-color:#1B75BC"/>
			</linearGradient>
			<path class="st10" d="M123.1,10.3h-0.8l-1.8-2.6l0.4-0.5L123.1,10.3z M120.5,4.1l1.6-2.3h0.8l-2,2.9L120.5,4.1z M119.2,5.9
				l-2.9-4.1h0.8l2.9,4.1l-3,4.4h-0.8L119.2,5.9z"/>
			
				<linearGradient id="SVGID_12_" gradientUnits="userSpaceOnUse" x1="125.95" y1="3.7" x2="125.95" y2="12.2" gradientTransform="matrix(1 0 0 -1 0 14)">
				<stop  offset="0" style="stop-color:#00C5FF"/>
				<stop  offset="1" style="stop-color:#1B75BC"/>
			</linearGradient>
			<path class="st11" d="M127.7,2.9l-2.8,7.4h-0.7l3.2-8.5h0.3"/>
			
				<linearGradient id="SVGID_13_" gradientUnits="userSpaceOnUse" x1="128.65" y1="6.5354" x2="128.65" y2="12.1955" gradientTransform="matrix(1 0 0 -1 0 14)">
				<stop  offset="0" style="stop-color:#00C5FF"/>
				<stop  offset="1" style="stop-color:#1B75BC"/>
			</linearGradient>
			<polygon class="st12" points="128.1,1.8 129.9,6.6 129.6,7.5 127.4,1.8 			"/>
			
				<linearGradient id="SVGID_14_" gradientUnits="userSpaceOnUse" x1="133.15" y1="3.7" x2="133.15" y2="12.2" gradientTransform="matrix(1 0 0 -1 0 14)">
				<stop  offset="0" style="stop-color:#00C5FF"/>
				<stop  offset="1" style="stop-color:#1B75BC"/>
			</linearGradient>
			<polygon class="st13" points="135.1,1.8 131.8,10.3 131.3,10.3 131.2,10.1 134.4,1.8 			"/>
			
				<linearGradient id="SVGID_15_" gradientUnits="userSpaceOnUse" x1="137.4" y1="3.7" x2="137.4" y2="12.2" gradientTransform="matrix(1 0 0 -1 0 14)">
				<stop  offset="0" style="stop-color:#00C5FF"/>
				<stop  offset="1" style="stop-color:#1B75BC"/>
			</linearGradient>
			<path class="st14" d="M137.1,1.8h0.6v8.5h-0.6V1.8z"/>
			
				<linearGradient id="SVGID_16_" gradientUnits="userSpaceOnUse" x1="144.25" y1="3.6453" x2="144.25" y2="12.2318" gradientTransform="matrix(1 0 0 -1 0 14)">
				<stop  offset="0" style="stop-color:#00C5FF"/>
				<stop  offset="1" style="stop-color:#1B75BC"/>
			</linearGradient>
			<path class="st15" d="M144.8,10.4c2.1-0.3,3.6-2.1,3.6-4.3s-1.4-4-3.6-4.3v0.7c1.7,0.3,2.9,1.8,2.9,3.6s-1.2,3.3-2.8,3.6
				L144.8,10.4z M143.6,9.7c-1.7-0.3-2.8-1.8-2.8-3.6s1.1-3.3,2.8-3.6V1.8c-2.1,0.3-3.5,2.1-3.5,4.3s1.4,4,3.5,4.3V9.7z"/>
		</g>
	</g>
	<g>
		<path class="st16" d="M3.2,9.8H2.3V3.2H0V2.5h5.5v0.8H3.2V9.8z"/>
		<path class="st16" d="M13.2,9.8l-0.9-2.3H9.4L8.5,9.8H7.6l2.9-7.4h0.7l2.9,7.4H13.2z M12.1,6.7l-0.9-2.3c-0.1-0.3-0.2-0.6-0.3-1.1
			c-0.1,0.3-0.2,0.7-0.3,1.1L9.7,6.7H12.1z"/>
		<path class="st16" d="M17.2,9.8V2.5H18v7.3H17.2z"/>
		<path class="st16" d="M22.1,9.8V2.5H23V9h3.2v0.8H22.1z"/>
		<path class="st16" d="M35.8,6.1c0,1.2-0.3,2.1-0.9,2.8c-0.6,0.7-1.4,1-2.5,1c-1.1,0-1.9-0.3-2.5-1S29,7.3,29,6.1s0.3-2.1,0.9-2.8
			s1.4-1,2.5-1c1.1,0,1.9,0.3,2.5,1S35.8,5,35.8,6.1z M30,6.1c0,1,0.2,1.7,0.6,2.3c0.4,0.5,1,0.8,1.8,0.8c0.8,0,1.4-0.3,1.8-0.8
			c0.4-0.5,0.6-1.3,0.6-2.3s-0.2-1.7-0.6-2.2c-0.4-0.5-1-0.8-1.8-0.8S31,3.4,30.5,3.9S30,5.2,30,6.1z"/>
		<path class="st16" d="M40.4,6.8v3h-0.9V2.5h2c0.9,0,1.6,0.2,2,0.5s0.6,0.9,0.6,1.6c0,1-0.5,1.6-1.5,2l2,3.3h-1l-1.8-3L40.4,6.8
			L40.4,6.8z M40.4,6h1.2c0.6,0,1-0.1,1.3-0.4c0.3-0.2,0.4-0.6,0.4-1.1s-0.1-0.8-0.4-1c-0.3-0.2-0.7-0.3-1.4-0.3h-1.1V6z"/>
		<path class="st16" d="M52,9.8h-4.1V2.5H52v0.8h-3.2v2.4h3v0.8h-3V9H52V9.8z"/>
		<path class="st16" d="M61.5,6.1c0,1.2-0.3,2.1-1,2.8c-0.7,0.6-1.6,1-2.8,1h-2V2.5h2.2c1.1,0,2,0.3,2.7,0.9
			C61.2,4.1,61.5,4.9,61.5,6.1z M60.6,6.1c0-1-0.2-1.7-0.7-2.2s-1.2-0.7-2.1-0.7h-1.2V9h1c1,0,1.8-0.2,2.3-0.7
			C60.3,7.8,60.6,7.1,60.6,6.1z"/>
		<path class="st16" d="M69.9,2.5H72c1,0,1.7,0.1,2.1,0.4s0.7,0.8,0.7,1.4c0,0.4-0.1,0.8-0.4,1.1s-0.6,0.5-1.1,0.5V6
			C74.4,6.2,75,6.7,75,7.7c0,0.7-0.2,1.2-0.7,1.5c-0.4,0.4-1.1,0.6-1.9,0.6h-2.6L69.9,2.5L69.9,2.5z M70.8,5.6h1.4
			c0.6,0,1-0.1,1.3-0.3s0.4-0.5,0.4-1c0-0.4-0.1-0.7-0.4-0.9S72.7,3.2,72,3.2h-1.3v2.4H70.8z M70.8,6.3V9h1.5c0.6,0,1-0.1,1.3-0.3
			S74,8.1,74,7.6s-0.2-0.8-0.5-1s-0.8-0.3-1.4-0.3C72.1,6.3,70.8,6.3,70.8,6.3z"/>
		<path class="st16" d="M80.5,6.1l2-3.7h0.9L80.9,7v2.8H80V7l-2.4-4.5h0.9L80.5,6.1z"/>
	</g>
</g>
</svg>
