<svg xmlns="http://www.w3.org/2000/svg" viewBox="0 0 50 50" enable-background="new 0 0 50 50"><style type="text/css">.st0{opacity:0.4;fill:#232323;} .st1{fill:#FFFFFF;} .st2{fill:none;stroke:#FFFFFF;stroke-width:4;stroke-miterlimit:10;} .st3{fill:none;stroke:#FFFFFF;stroke-width:2;stroke-miterlimit:10;} .st4{fill-rule:evenodd;clip-rule:evenodd;fill:#FFFFFF;} .st5{fill:url(#SVGID_1_);} .st6{fill:url(#SVGID_2_);} .st7{fill:url(#SVGID_3_);} .st8{fill:url(#SVGID_4_);} .st9{fill:url(#SVGID_5_);} .st10{fill:url(#SVGID_6_);} .st11{fill:url(#SVGID_7_);} .st12{fill:url(#SVGID_8_);} .st13{fill:url(#SVGID_9_);} .st14{fill:url(#SVGID_10_);} .st15{fill:url(#SVGID_11_);} .st16{fill:url(#SVGID_12_);} .st17{fill:url(#SVGID_13_);} .st18{fill:url(#SVGID_14_);} .st19{fill:url(#SVGID_15_);} .st20{fill:url(#SVGID_16_);} .st21{opacity:0.5;clip-path:url(#SVGID_18_);fill:#232323;} .st22{opacity:0.4;} .st23{fill:none;stroke:#8E8E8E;stroke-miterlimit:10;} .st24{fill:url(#SVGID_19_);} .st25{fill:url(#SVGID_20_);} .st26{fill:url(#SVGID_21_);} .st27{fill:url(#SVGID_22_);} .st28{fill:url(#SVGID_23_);} .st29{fill:url(#SVGID_24_);} .st30{fill:url(#SVGID_25_);} .st31{fill:url(#SVGID_26_);} .st32{opacity:0.5;clip-path:url(#SVGID_28_);fill:#232323;} .st33{fill:url(#SVGID_29_);} .st34{fill:url(#SVGID_30_);} .st35{fill:url(#SVGID_31_);} .st36{fill:url(#SVGID_32_);} .st37{fill:url(#SVGID_33_);} .st38{fill:url(#SVGID_34_);} .st39{fill:url(#SVGID_35_);} .st40{fill:url(#SVGID_36_);} .st41{opacity:0.5;clip-path:url(#SVGID_38_);fill:#232323;} .st42{fill:url(#SVGID_39_);} .st43{fill:url(#SVGID_40_);} .st44{fill:url(#SVGID_41_);} .st45{fill:url(#SVGID_42_);} .st46{fill:url(#SVGID_43_);} .st47{fill:url(#SVGID_44_);} .st48{fill:url(#SVGID_45_);} .st49{fill:url(#SVGID_46_);} .st50{opacity:0.5;clip-path:url(#SVGID_48_);fill:#232323;} .st51{fill:url(#SVGID_49_);} .st52{fill:url(#SVGID_50_);} .st53{fill:url(#SVGID_51_);} .st54{fill:url(#SVGID_52_);} .st55{fill:url(#SVGID_53_);} .st56{fill:url(#SVGID_54_);} .st57{fill:url(#SVGID_55_);} .st58{fill:url(#SVGID_56_);} .st59{opacity:0.5;clip-path:url(#SVGID_58_);fill:#232323;} .st60{fill:none;stroke:#FFFFFF;stroke-miterlimit:10;} .st61{clip-path:url(#SVGID_60_);} .st62{clip-path:url(#SVGID_66_);}</style><path d="M20.7 25.27v17.18c0 .25.2.45.45.45h6.38c.25 0 .45-.2.45-.45V25h4.63c.25 0 .45-.2.47-.42l.44-5.26c.03-.26-.17-.5-.44-.5H28V15.1c0-.87.7-1.58 1.57-1.58h3.57c.25 0 .45-.2.45-.45V7.8c0-.24-.2-.44-.46-.44H27.1c-3.54 0-6.4 2.87-6.4 6.4v5.07h-3.2c-.24 0-.44.2-.44.45v5.26c0 .25.2.45.45.45h3.2v.26z" class="st4"/></svg>