<svg xmlns="http://www.w3.org/2000/svg" id="Layer_1" x="0" y="0" version="1.1" viewBox="0 0 50 50" xml:space="preserve"><style>.st1{fill:#fff}</style><path d="M43.42 28.99v13.02c0 .32-.26.58-.58.58h-6.72a.58.58 0 01-.58-.58V29.9c0-3.19-1.14-5.36-4-5.36-2.18 0-3.47 1.47-4.05 2.88a5.35 5.35 0 00-.26 1.92v12.67c0 .32-.26.58-.58.58h-6.72a.58.58 0 01-.58-.58c.01-3.23.08-18.88.01-22.55a.58.58 0 01.58-.59h6.71c.32 0 .58.26.58.58v2.78c-.02.03-.04.05-.05.08h.05v-.08a7.84 7.84 0 017.11-3.92c5.19 0 9.08 3.39 9.08 10.68zM7.68 42.6h6.72c.32 0 .58-.26.58-.58V19.45a.58.58 0 00-.58-.58H7.68a.58.58 0 00-.58.58v22.56c-.01.32.25.59.58.59zM15.02 11.63a4.22 4.22 0 11-8.44 0 4.22 4.22 0 018.44 0z" class="st1"/></svg>