<svg xmlns="http://www.w3.org/2000/svg" viewBox="0 0 50 50" enable-background="new 0 0 50 50"><style type="text/css">.st0{opacity:0.4;fill:#232323;} .st1{fill:#FFFFFF;} .st2{fill:none;stroke:#FFFFFF;stroke-width:4;stroke-miterlimit:10;} .st3{fill:none;stroke:#FFFFFF;stroke-width:2;stroke-miterlimit:10;} .st4{fill-rule:evenodd;clip-rule:evenodd;fill:#FFFFFF;} .st5{fill:url(#SVGID_1_);} .st6{fill:url(#SVGID_2_);} .st7{fill:url(#SVGID_3_);} .st8{fill:url(#SVGID_4_);} .st9{fill:url(#SVGID_5_);} .st10{fill:url(#SVGID_6_);} .st11{fill:url(#SVGID_7_);} .st12{fill:url(#SVGID_8_);} .st13{fill:url(#SVGID_9_);} .st14{fill:url(#SVGID_10_);} .st15{fill:url(#SVGID_11_);} .st16{fill:url(#SVGID_12_);} .st17{fill:url(#SVGID_13_);} .st18{fill:url(#SVGID_14_);} .st19{fill:url(#SVGID_15_);} .st20{fill:url(#SVGID_16_);} .st21{opacity:0.5;clip-path:url(#SVGID_18_);fill:#232323;} .st22{opacity:0.4;} .st23{fill:none;stroke:#8E8E8E;stroke-miterlimit:10;} .st24{fill:url(#SVGID_19_);} .st25{fill:url(#SVGID_20_);} .st26{fill:url(#SVGID_21_);} .st27{fill:url(#SVGID_22_);} .st28{fill:url(#SVGID_23_);} .st29{fill:url(#SVGID_24_);} .st30{fill:url(#SVGID_25_);} .st31{fill:url(#SVGID_26_);} .st32{opacity:0.5;clip-path:url(#SVGID_28_);fill:#232323;} .st33{fill:url(#SVGID_29_);} .st34{fill:url(#SVGID_30_);} .st35{fill:url(#SVGID_31_);} .st36{fill:url(#SVGID_32_);} .st37{fill:url(#SVGID_33_);} .st38{fill:url(#SVGID_34_);} .st39{fill:url(#SVGID_35_);} .st40{fill:url(#SVGID_36_);} .st41{opacity:0.5;clip-path:url(#SVGID_38_);fill:#232323;} .st42{fill:url(#SVGID_39_);} .st43{fill:url(#SVGID_40_);} .st44{fill:url(#SVGID_41_);} .st45{fill:url(#SVGID_42_);} .st46{fill:url(#SVGID_43_);} .st47{fill:url(#SVGID_44_);} .st48{fill:url(#SVGID_45_);} .st49{fill:url(#SVGID_46_);} .st50{opacity:0.5;clip-path:url(#SVGID_48_);fill:#232323;} .st51{fill:url(#SVGID_49_);} .st52{fill:url(#SVGID_50_);} .st53{fill:url(#SVGID_51_);} .st54{fill:url(#SVGID_52_);} .st55{fill:url(#SVGID_53_);} .st56{fill:url(#SVGID_54_);} .st57{fill:url(#SVGID_55_);} .st58{fill:url(#SVGID_56_);} .st59{opacity:0.5;clip-path:url(#SVGID_58_);fill:#232323;} .st60{fill:none;stroke:#FFFFFF;stroke-miterlimit:10;} .st61{clip-path:url(#SVGID_60_);} .st62{clip-path:url(#SVGID_66_);}</style><path d="M7.28 19.52c-.62-.8-1.17-1.5-1.82-2.35 2.1-1.86 4.16-3.74 6.3-5.54 1.1-.9 2.25-1.77 3.5-2.45 2.48-1.37 5.14-.6 6.2 2.04.82 2.1 1.12 4.4 1.62 6.6.68 3.05 1.22 6.15 2.04 9.16.27 1 1.2 1.83 1.8 2.74.88-.67 1.97-1.18 2.57-2.04 1.23-1.8 2.23-3.76 3.32-5.66.14-.24.22-.53.3-.8.36-1.32.67-2.7-.36-3.82-1.02-1.1-2.37-.84-3.67-.53-.3.07-.63.17-1.18.32 1.2-3.6 3.02-6.46 6.3-8.15 1.02-.53 2.2-.9 3.35-1 4.02-.4 6.96 2.12 6.98 6.16 0 1.88-.28 3.9-1 5.6-3.23 7.9-8.15 14.63-14.97 19.86-1.12.85-2.45 1.48-3.77 1.96-2.1.77-3.84.33-5.04-1.54-1.15-1.8-2.1-3.8-2.76-5.8-1.37-4.22-2.48-8.52-3.74-12.77-.28-.92-.7-1.82-1.18-2.66-.68-1.2-1.46-1.37-2.66-.7-.73.4-1.4.86-2.16 1.36z" class="st1"/></svg>