<svg xmlns="http://www.w3.org/2000/svg" id="Layer_1" x="0" y="0" version="1.1" viewBox="0 0 50 50" xml:space="preserve"><style></style><path fill="#fff" d="M34.43 14.25a2.04 2.04 0 100 4.08 2.04 2.04 0 100-4.08zm-9.05 2.62a8.57 8.57 0 000 17.12 8.57 8.57 0 000-17.12zm0 14.04a5.49 5.49 0 11.02-10.98 5.49 5.49 0 01-.02 10.98zm17.26-12.6c0-5.76-4.67-10.44-10.44-10.44H18.43A10.43 10.43 0 007.99 18.31v13.78c0 5.76 4.67 10.44 10.44 10.44h13.78c5.77 0 10.44-4.67 10.44-10.44V18.31zm-3.26 13.78a7.17 7.17 0 01-7.17 7.17H18.43a7.17 7.17 0 01-7.17-7.17V18.31a7.17 7.17 0 017.17-7.17h13.78a7.17 7.17 0 017.17 7.17v13.78z"/></svg>